<?xml version="1.0" encoding="utf-8"?>
<!-- Generator: Adobe Illustrator 16.0.0, SVG Export Plug-In . SVG Version: 6.00 Build 0)  -->
<!DOCTYPE svg PUBLIC "-//W3C//DTD SVG 1.1//EN" "http://www.w3.org/Graphics/SVG/1.1/DTD/svg11.dtd">
<svg version="1.1" id="Layer_1" xmlns="http://www.w3.org/2000/svg" xmlns:xlink="http://www.w3.org/1999/xlink" x="0px" y="0px"
	 width="48px" height="48px" viewBox="0 0 48 48" enable-background="new 0 0 48 48" xml:space="preserve">
<g>
	<path d="M37.264,41.993c-0.063,0.111-0.04,0.252,0.056,0.337s0.238,0.091,0.342,0.015c3.759-2.789,6.637-6.698,8.137-11.235
		c0.079-0.238,0.053-0.499-0.072-0.716c-0.125-0.218-0.337-0.373-0.583-0.424l-0.063-0.014c-0.5-0.105-1.011,0.125-1.265,0.568
		L37.264,41.993z"/>
	<path d="M32.247,27.259c-0.669-0.14-1.351,0.169-1.686,0.764L21.19,44.699c-0.235,0.419-0.24,0.931-0.013,1.355
		s0.656,0.704,1.137,0.739c0.006,0,0.012,0.001,0.018,0.001c0.65,0.047,1.271-0.284,1.594-0.85l9.357-16.378
		c0.247-0.434,0.273-0.96,0.068-1.417S32.736,27.362,32.247,27.259z"/>
	<path d="M25.252,0.977l0.292,19.653c0.018,1.152,0.83,2.139,1.957,2.375l19.238,4.043c0.141-1.03,0.216-2.082,0.216-3.151
		C46.955,11.64,37.348,1.627,25.252,0.977z"/>
	<path d="M25.88,25.921c-0.633-0.133-1.279,0.161-1.596,0.724L14.96,43.252c-0.205,0.364-0.241,0.799-0.101,1.193
		c0.142,0.394,0.445,0.708,0.835,0.859c0.019,0.007,0.037,0.014,0.056,0.021c0.679,0.261,1.442-0.016,1.799-0.649l9.317-16.581
		c0.23-0.411,0.252-0.908,0.058-1.337C26.729,26.329,26.341,26.018,25.88,25.921z"/>
	<path d="M22.065,1.024C10.292,2.006,1.044,11.871,1.044,23.898c0,8.024,4.117,15.085,10.354,19.189L21.58,24.952
		c0.537-0.955,0.811-2.036,0.795-3.131L22.065,1.024z"/>
	<path d="M38.781,28.632c-0.689-0.145-1.395,0.172-1.744,0.784l-8.145,14.258c-0.308,0.538-0.256,1.209,0.13,1.694
		s1.028,0.686,1.622,0.507c0.569-0.171,1.05-0.554,1.344-1.07l7.87-13.778c0.257-0.451,0.283-0.998,0.07-1.471
		S39.29,28.739,38.781,28.632z"/>
</g>
</svg>
