<?xml version="1.0" encoding="UTF-8"?>
<!DOCTYPE svg PUBLIC "-//W3C//DTD SVG 1.1 Tiny//EN" "http://www.w3.org/Graphics/SVG/1.1/DTD/svg11-tiny.dtd">
<svg fill="#FFFFFF" baseProfile="tiny" xmlns="http://www.w3.org/2000/svg" width="306" height="24"
     preserveAspectRatio="xMaxYMax meet" viewBox="0 0 306 24">
    <g id="add_white" transform="translate(0,0)">
        <path d="M19 13h-6v6h-2v-6H5v-2h6V5h2v6h6v2z"/>
        <path d="M0 0h24v24H0z" fill="none"/>
    </g>
    <g id="check_circle_black" transform="translate(24,0)">
        <path d="M0 0h24v24H0z" fill="none"/>
        <path d="M12 2C6.48 2 2 6.48 2 12s4.48 10 10 10 10-4.48 10-10S17.52 2 12 2zm-2 15l-5-5 1.41-1.41L10 14.17l7.59-7.59L19 8l-9 9z"/>
    </g>
    <g id="check_circle_white" transform="translate(48,0)">
        <path d="M0 0h24v24H0z" fill="none"/>
        <path d="M12 2C6.48 2 2 6.48 2 12s4.48 10 10 10 10-4.48 10-10S17.52 2 12 2zm-2 15l-5-5 1.41-1.41L10 14.17l7.59-7.59L19 8l-9 9z"/>
    </g>
    <g id="clear_white" transform="translate(72,0)">
        <path d="M19 6.41L17.59 5 12 10.59 6.41 5 5 6.41 10.59 12 5 17.59 6.41 19 12 13.41 17.59 19 19 17.59 13.41 12z"/>
        <path d="M0 0h24v24H0z" fill="none"/>
    </g>
    <g id="ic_autorenew" transform="translate(96,0)">
        <path d="M12 6v3l4-4-4-4v3c-4.42 0-8 3.58-8 8 0 1.57.46 3.03 1.24 4.26L6.7 14.8c-.45-.83-.7-1.79-.7-2.8 0-3.31 2.69-6 6-6zm6.76 1.74L17.3 9.2c.44.84.7 1.79.7 2.8 0 3.31-2.69 6-6 6v-3l-4 4 4 4v-3c4.42 0 8-3.58 8-8 0-1.57-.46-3.03-1.24-4.26z"/>
        <path d="M0 0h24v24H0z" fill="none"/>
    </g>
    <g id="ic_movie" transform="translate(120,0)">
        <path d="M18 4l2 4h-3l-2-4h-2l2 4h-3l-2-4H8l2 4H7L5 4H4c-1.1 0-1.99.9-1.99 2L2 18c0 1.1.9 2 2 2h16c1.1 0 2-.9 2-2V4h-4z"/>
        <path d="M0 0h24v24H0z" fill="none"/>
    </g>
    <g id="ic_pie_chart_outlined_white_24px" transform="translate(144,0)">
        <path d="M0 0h24v24H0V0z" fill="none"/>
        <path d="M12 2C6.5 2 2 6.5 2 12s4.5 10 10 10 10-4.5 10-10S17.5 2 12 2zm1 2.07c3.61.45 6.48 3.33 6.93 6.93H13V4.07zM4 12c0-4.06 3.07-7.44 7-7.93v15.87c-3.93-.5-7-3.88-7-7.94zm9 7.93V13h6.93c-.45 3.61-3.32 6.48-6.93 6.93z"/>
    </g>
    <g id="ic_trending_down_white_24px" transform="translate(168,0)">
        <path d="M16 18l2.29-2.29-4.88-4.88-4 4L2 7.41 3.41 6l6 6 4-4 6.3 6.29L22 12v6z"/>
        <path d="M0 0h24v24H0z" fill="none"/>
    </g>
    <g id="ic_trending_up_white_24px" transform="translate(192,0)">
        <path d="M16 6l2.29 2.29-4.88 4.88-4-4L2 16.59 3.41 18l6-6 4 4 6.3-6.29L22 12V6z"/>
        <path d="M0 0h24v24H0z" fill="none"/>
    </g>
    <g id="info_outline" transform="translate(216,0)">
        <path d="M0 0h24v24H0z" fill="none"/>
        <path d="M11 17h2v-6h-2v6zm1-15C6.48 2 2 6.48 2 12s4.48 10 10 10 10-4.48 10-10S17.52 2 12 2zm0 18c-4.41 0-8-3.59-8-8s3.59-8 8-8 8 3.59 8 8-3.59 8-8 8zM11 9h2V7h-2v2z"/>
    </g>
    <g id="keyboard_arrow_left" transform="translate(240,0)">
        <path d="M15.41 16.09l-4.58-4.59 4.58-4.59L14 5.5l-6 6 6 6z"/>
        <path d="M0-.5h24v24H0z" fill="none"/>
    </g>
    <g id="keyboard_arrow_right" transform="translate(264,0)">
        <path d="M8.59 16.34l4.58-4.59-4.58-4.59L10 5.75l6 6-6 6z"/>
        <path d="M0-.25h24v24H0z" fill="none"/>
    </g>
    <g id="movie_white_18px" transform="translate(288,0)">
        <path d="M18 4l2 4h-3l-2-4h-2l2 4h-3l-2-4H8l2 4H7L5 4H4c-1.1 0-1.99.9-1.99 2L2 18c0 1.1.9 2 2 2h16c1.1 0 2-.9 2-2V4h-4z"/>
        <path d="M0 0h24v24H0z" fill="none"/>
    </g>
</svg>